<svg xmlns="http://www.w3.org/2000/svg" viewBox="0 0 572.31 739.48"><defs><style>.cls-1{fill:#11355c;isolation:isolate;}</style></defs><title>Asset 1</title><g id="Layer_2" data-name="Layer 2"><g id="Layer_2-2" data-name="Layer 2"><path d="M449.45,182.69c10.76,3.63,19.58,11.43,25.89,20.73,7.17,10.58,11,22.85,13.16,35.36,2.42,14.12,2.88,28.54,3.76,42.81L495,326.83l3.09,50.71c.12,1.91,3.12,1.93,3,0l-5.64-92.47c-.89-14.63-1.38-29.38-3.56-43.9-2-13-5.55-25.85-12.54-37-6.85-11-16.74-20.15-29.12-24.33-1.84-.62-2.62,2.28-.8,2.9Z"/><path d="M441.84,179.68c-3,1.57-6.19,3.61-9.64,4.07-2.5.33-5.33-.48-6.51-2.87-.86-1.73-3.44-.21-2.59,1.51,1.53,3.11,5.2,4.61,8.54,4.41,4.24-.25,8-2.62,11.71-4.53,1.72-.89.2-3.48-1.51-2.59Z"/><path d="M454.56,215.91a353.8,353.8,0,0,1-4.09,43.23q-.84,5.33-1.83,10.63c-.5,2.64-.72,6.52-3.37,8s-6.28.73-9.08.55q-5.37-.34-10.74-.81-10.77-1-21.49-2.4c-3.26-.45-6.54-.86-9.77-1.47a23.39,23.39,0,0,1-7.47-2.47,9.5,9.5,0,0,1-4.64-6.2c-.68-3-.24-6.11.26-9.07a95.55,95.55,0,0,1,5.27-18.53c5.34-13.65,13.21-26.15,21-38.5,1-1.64-1.57-3.15-2.59-1.52-7.39,11.73-14.76,23.56-20.13,36.37a99.64,99.64,0,0,0-6.11,19.65c-1.16,6-2.21,13.17,2.42,18.05,4,4.18,10.22,5,15.64,5.82q11.34,1.68,22.75,2.81,5.73.57,11.46,1c3.47.25,7.1.78,10.58.47,3-.27,5.71-1.51,7.12-4.3,1.55-3.08,1.85-6.92,2.45-10.27a359.87,359.87,0,0,0,5.37-51c.07-1.93-2.93-1.93-3,0Z"/><path d="M412.93,183.6a142.25,142.25,0,0,1-36.08,19c-2.72,1-5.85,1.85-6.54,5.07a21.85,21.85,0,0,0-.11,4.92q.06,3,.13,5.95.26,11.4.65,22.8.45,12.88,1.06,25.77c.09,1.92,3.1,1.93,3,0q-1.05-22-1.6-44.11c-.1-3.64-.18-7.27-.25-10.91,0-1.33-.45-3.51.43-4.68s2.61-1.42,3.81-1.84a145.42,145.42,0,0,0,18.11-7.78,143,143,0,0,0,18.9-11.62c1.55-1.12.05-3.72-1.51-2.59Z"/><path d="M408.9,101.26l-11,24.57c-3.14,7.06-7.1,14.34-7.67,22.19-.47,6.63,2.62,13,8.82,15.78,5.75,2.59,12.42,2.3,18.47,1a91,91,0,0,0,25.32-9.65c1.7-.93.18-3.53-1.51-2.59a93.49,93.49,0,0,1-21.24,8.54c-5.61,1.49-11.75,2.41-17.44.79a13.4,13.4,0,0,1-6.64-4.06,13,13,0,0,1-2.83-8.88c.19-7.23,3.93-14.07,6.81-20.53l11.47-25.69c.78-1.75-1.81-3.28-2.59-1.52Z"/><path d="M449.43,133.71c0-.06,0-.3,0-.05a1.6,1.6,0,0,1,.05-.21c.09-.23-.1.18,0,0l.1-.18a1.38,1.38,0,0,1,.45-.4c.05,0,.44-.22.25-.15.16-.06.34-.1.51-.15l.23-.05c-.23,0,0,0,.06,0a3.24,3.24,0,0,1,.62,0c-.25,0,.21.06.27.08l.22.07c-.2-.08,0,0,.06,0a3.41,3.41,0,0,1,.81.7,5,5,0,0,1,.89,2.28c.53,3.23-1.21,7.49-4.51,8.59a5.07,5.07,0,0,1-5.08-.85c-1.42-1.32-3.54.8-2.12,2.12a8.07,8.07,0,0,0,7.36,1.8,9.38,9.38,0,0,0,6-4.79,11.88,11.88,0,0,0,1.25-7.86c-.5-2.52-2.28-4.87-5-5.17s-5.33,1.43-5.42,4.19c-.06,1.93,2.94,1.92,3,0Z"/><path d="M446.89,108c-10.13,1-20.85.6-30.24-3.74a36.65,36.65,0,0,1-10.75-7.4c-3.07-3.1-6.55-7.57-6.78-12.11-.25-5.18,3.83-9.4,7.17-12.84,1.35-1.38-.77-3.51-2.12-2.12-3.38,3.48-7.07,7.47-7.88,12.45s1.9,10,5,13.87c6.32,8.05,16,12.75,26,14.44a74.38,74.38,0,0,0,19.66.45c1.9-.18,1.92-3.19,0-3Z"/><path d="M409.13,67c6-6.88,16.57-6.94,24.17-2.86,9.2,4.94,14.81,14.27,19.64,23.16,3,5.58,5.94,11.24,9.64,16.42,1.11,1.56,3.72.06,2.59-1.52-6.86-9.59-11-20.85-18.34-30.15-6.3-8-15.37-14.35-25.95-13.62A20,20,0,0,0,407,64.88c-1.26,1.45.85,3.58,2.12,2.12Z"/><path d="M469.94,99.76c1.92,4.58,6.52,5.9,10.67,7.82a10.16,10.16,0,0,1,6.74,11.74c-.82,6.08-5.51,11-9.61,15.15A110,110,0,0,1,463.12,147a101.35,101.35,0,0,1-8.89,5.75c-3,1.71-6.56,3.25-10,1.82-1.78-.73-2.55,2.17-.79,2.9,6.34,2.62,13.26-2.5,18.28-5.86a114.77,114.77,0,0,0,15.78-12.71c4.71-4.53,9.77-9.56,12-15.85,1.84-5.22,1.16-11.89-3.31-15.61-2.16-1.79-4.76-2.77-7.31-3.88-2.27-1-5-2.17-6.05-4.63a1.56,1.56,0,0,0-1.84-1,1.51,1.51,0,0,0-1.05,1.85Z"/><path d="M441.09,159.07A92.82,92.82,0,0,0,446,176.45a1.56,1.56,0,0,0,1.85,1.05,1.52,1.52,0,0,0,1.05-1.85A92,92,0,0,1,444,158.28a1.51,1.51,0,0,0-1.84-1.05,1.53,1.53,0,0,0-1.05,1.84Z"/><path d="M419.35,164a20.16,20.16,0,0,1-4.77,18.51c-1.31,1.41.8,3.54,2.13,2.12a23.28,23.28,0,0,0,5.53-21.42c-.47-1.87-3.36-1.08-2.89.79Z"/><path d="M365.89,210a93.83,93.83,0,0,0-41.51,15.88c-1.57,1.09-.07,3.69,1.52,2.59a90.62,90.62,0,0,1,40-15.47c1.89-.25,1.91-3.25,0-3Z"/><path d="M326.83,220.76l-23.5-41.25-11.88-20.85c-3.64-6.39-7.56-12.75-10.15-19.67a60.5,60.5,0,0,1-3.75-24.28c.1-1.93-2.9-1.92-3,0a63.39,63.39,0,0,0,2.81,22.06c2.23,7.07,5.87,13.52,9.52,19.93l23.76,41.69,13.6,23.89a1.5,1.5,0,0,0,2.59-1.52Z"/><path d="M365.15,267.3c-13.38,3.21-27.39,6.67-41.23,4.61-11.63-1.73-22.59-7.24-28.83-17.51-3.38-5.58-5.51-11.82-7.73-17.93q-3.63-10-7-20-6.78-20.1-12.6-40.51-6.54-23-11.86-46.23c-.43-1.88-3.32-1.08-2.89.8q9.72,42.54,23.54,84,3.47,10.4,7.2,20.72c2.29,6.35,4.45,12.86,7.7,18.81a37.94,37.94,0,0,0,12,13.4,46.08,46.08,0,0,0,16,6.69c15.53,3.41,31.36-.31,46.49-3.94,1.88-.45,1.08-3.34-.8-2.89Z"/><path d="M252.45,131.08a44.53,44.53,0,0,1-16.58-20.85c-.69-1.78-3.59-1-2.9.8a48,48,0,0,0,18,22.64c1.6,1.09,3.1-1.51,1.51-2.59Z"/><path d="M270.52,101.62c-3.28-3.12-6.54-6.28-9.85-9.37a9.65,9.65,0,0,0-4.87-2.82c-2.14-.39-4.35,0-6.49.18a79.24,79.24,0,0,1-26.41-2.72,1.51,1.51,0,0,0-.8,2.9,82.06,82.06,0,0,0,25.33,2.92c2.07-.09,4.14-.39,6.21-.44a6.59,6.59,0,0,1,5.05,2.24c3.25,3.06,6.47,6.16,9.71,9.24,1.4,1.33,3.52-.79,2.12-2.13Z"/><path d="M288.89,113.53c-23.06-6.39-46.07-13-69.33-18.65-6.54-1.58-13.1-3.07-19.69-4.42-1.89-.39-2.69,2.5-.8,2.89,23.47,4.83,46.56,11.32,69.65,17.71l19.37,5.36a1.5,1.5,0,0,0,.8-2.89Z"/><path d="M290.82,109.66c-23.06-6.38-46.07-13-69.33-18.64C215,89.44,208.39,88,201.8,86.6c-1.89-.39-2.69,2.5-.8,2.89,23.47,4.83,46.56,11.31,69.65,17.7L290,112.56a1.51,1.51,0,0,0,.8-2.9Z"/><path d="M291.54,113.08a3,3,0,0,1,.43.08l.19.06c.27.09-.32-.16-.07,0s.26.13.38.21,0,0-.08-.06l.18.15a3.85,3.85,0,0,0,.27.3c-.24-.2-.15-.21,0,0s.07.11.11.17l.09.17c.14.25-.11-.34,0-.07s.08.28.11.43,0-.39,0-.13c0,.08,0,.16,0,.24a1.34,1.34,0,0,1,0,.2c0,.3,0-.12,0-.13s-.09.39-.1.43a1.07,1.07,0,0,0-.07.19l.08-.18a.54.54,0,0,0-.05.11,2.39,2.39,0,0,1-.21.34,1,1,0,0,1-.09.13l.14-.18c-.06,0-.11.13-.16.18l-.14.13c-.19.17,0,0,.08,0-.13.07-.26.17-.4.24a1.5,1.5,0,1,0,1.51,2.59,4.57,4.57,0,0,0,2.31-4.83,4.51,4.51,0,0,0-3.64-3.55,1.72,1.72,0,0,0-1.16.15,1.59,1.59,0,0,0-.69.9,1.61,1.61,0,0,0,.15,1.16,1.48,1.48,0,0,0,.9.69Z"/><path d="M289.91,113l-.05,1.71a1.11,1.11,0,0,0,.13.57,1.21,1.21,0,0,0,.31.49,1.24,1.24,0,0,0,.48.31,1.29,1.29,0,0,0,.58.13,1.54,1.54,0,0,0,1.06-.44,1.56,1.56,0,0,0,.44-1.06l.05-1.71a1.72,1.72,0,0,0-.44-1.06,1.24,1.24,0,0,0-.48-.31,1.27,1.27,0,0,0-.58-.13,1.54,1.54,0,0,0-1.06.44,1.61,1.61,0,0,0-.44,1.06Z"/><path d="M201.45,86.26a84.15,84.15,0,0,0-8.83-.93,1.51,1.51,0,0,0-.75,2.79c.62.36,1.23.73,1.81,1.14.32.21.62.44.93.67-.22-.17.21.18.25.21l.39.32a23.44,23.44,0,0,1,3,3.11,1.5,1.5,0,0,0,2.12,0,1.54,1.54,0,0,0,0-2.12,24.82,24.82,0,0,0-7-5.92l-.76,2.8c1.39.07,2.77.17,4.15.31s2.47.29,3.88.52a1.5,1.5,0,0,0,.8-2.9Z"/><path d="M247.88,110.16a18.5,18.5,0,0,1,14,12.18c.59,1.83,3.49,1,2.89-.8a21.5,21.5,0,0,0-16.13-14.27,1.53,1.53,0,0,0-1.84,1,1.5,1.5,0,0,0,1,1.84Z"/><path d="M435.82,279.36a254.21,254.21,0,0,1-12.57,48.7,251.79,251.79,0,0,1-10,23.44c-1.78,3.65-3.6,7.3-5.63,10.82-1.88,3.26-4.24,6.26-8,7.41s-7.53.63-11.16-.12c-3.8-.8-7.56-1.86-11.3-2.91q-11.51-3.26-22.73-7.39a303.89,303.89,0,0,1-43.58-20.15,301.8,301.8,0,0,1-39.73-26.61q-2.36-1.87-4.68-3.79c-1.48-1.22-3.62.89-2.12,2.12a306.83,306.83,0,0,0,40.34,28.19A309.18,309.18,0,0,0,349,360.45q11.44,4.44,23.23,7.94,5.88,1.75,11.83,3.26a42.35,42.35,0,0,0,11.5,1.71,15.65,15.65,0,0,0,10.28-3.82c2.9-2.61,4.69-6.25,6.48-9.65a256.25,256.25,0,0,0,10.92-23.62,254.27,254.27,0,0,0,14.39-49.85q.56-3.12,1.05-6.27c.29-1.88-2.6-2.7-2.9-.79Z"/><path d="M388.8,272.51a160.39,160.39,0,0,0-16.68,51c-.28,1.89,2.61,2.7,2.89.8A158.4,158.4,0,0,1,391.39,274c.9-1.7-1.69-3.22-2.59-1.51Z"/><path d="M387.58,332.49a549.72,549.72,0,0,0-74.36-27.58q-10.75-3.12-21.63-5.8c-1.88-.46-2.68,2.44-.8,2.9a545.8,545.8,0,0,1,74.84,24.27q10.31,4.19,20.43,8.8c1.75.79,3.27-1.79,1.52-2.59Z"/><path d="M291.33,299.59l-14.06-8.69c-4.48-2.77-8.9-5.93-13.67-8.21a21.41,21.41,0,0,0-14.49-1.28c-5.17,1.21-10.17,3.3-15.17,5.08l-17.87,6.35c-1.81.65-1,3.55.8,2.9l15-5.35c5-1.78,10-3.71,15-5.28,4.81-1.48,9.74-2.18,14.49-.12a52,52,0,0,1,6.34,3.57l6.71,4.15,15.31,9.47c1.65,1,3.16-1.58,1.52-2.59Z"/><path d="M214.17,293.62a26.4,26.4,0,0,0-7,3.66c-1.75,1.31-3.93,3.26-3,5.7s3.9,2.37,6,2.44a40.24,40.24,0,0,0,8.76-.73,12.61,12.61,0,0,1,3.77-.35,12.81,12.81,0,0,1,4.24,1.47c2.41,1.2,4.77,2.46,7.27,3.49,4.77,1.95,10,3.09,15.13,2.1,4.84-.93,9.47-3.83,11.61-8.38.81-1.74-1.77-3.27-2.59-1.52a12.71,12.71,0,0,1-8.23,6.63c-4.09,1.19-8.37.6-12.36-.7a48.63,48.63,0,0,1-6.53-2.77,39.68,39.68,0,0,0-6.21-2.87,13.73,13.73,0,0,0-6.68,0,38,38,0,0,1-7.21.69,12.06,12.06,0,0,1-3.7-.28c-1.1-.39.15-1.4.69-1.86a22,22,0,0,1,6.85-3.79c1.81-.63,1-3.53-.8-2.89Z"/><path d="M198.23,115.8c-9.23-8.87-13.89-21-17.94-32.92a395.41,395.41,0,0,0-15.2-39.2q-4.51-9.75-9.7-19.18A206.7,206.7,0,0,0,144.24,5.83,14.41,14.41,0,0,0,137.93.39a5.63,5.63,0,0,0-7,2.47c-1.58,2.79-1.29,6.57-1.36,9.65-.09,3.67-.06,7.34,0,11,.42,15.16,2.08,30.27,2,45.44a134,134,0,0,1-1.71,22.28c-.51,3-.85,6.66-2.69,9.2-1.65,2.29-4.32,2.62-6.81,1.62-6-2.43-9.63-9-13.22-13.92l-14-19.38c-4-5.58-7.83-11.55-12.5-16.64-3.87-4.22-8.94-7.84-14.92-7.64-6.61.22-11.9,4.65-17.48,7.64A30.74,30.74,0,0,1,33.66,55.7a35.53,35.53,0,0,1-27-12.49A30,30,0,0,1,2.75,37c-.83-1.74-3.41-.22-2.59,1.52,4.48,9.43,13.49,16.14,23.46,18.85a38,38,0,0,0,15.6.94c5.62-.85,10.39-3.35,15.2-6.26,5.29-3.2,11.17-6.25,17.28-3.25,5.4,2.65,9.07,7.88,12.5,12.63l14,19.37L104.91,90c2.1,2.91,4.08,6,6.45,8.68,3.41,3.88,9.14,8.59,14.66,6.35A9.64,9.64,0,0,0,131.27,99a52.32,52.32,0,0,0,2.06-10.25c2.09-15,1.23-30.08.3-45.1-.46-7.5-.95-15-1.08-22.52-.07-3.83-.06-7.65.1-11.47.09-2.13,0-7,3.34-6.68,2.74.29,4.94,3.24,6.3,5.35q2.84,4.42,5.52,9,5.59,9.43,10.52,19.26A314.38,314.38,0,0,1,175,76.42c4,11.9,7.74,24.36,15.23,34.65a51.58,51.58,0,0,0,5.93,6.85c1.39,1.34,3.52-.78,2.12-2.12Z"/><path d="M335.87,714.69c-3.69,2-8,1.25-11.95.45a54.48,54.48,0,0,0-12.58-1.48A41.23,41.23,0,0,0,298.8,716c-2.92,1-9.2,2.82-7.8,7.07.62,1.87,2.39,3.08,4,4a29.53,29.53,0,0,0,5.8,2.36A70.89,70.89,0,0,0,313,731.43,143.81,143.81,0,0,1,340.19,737c2.32.73,4.61,1.76,7,2.32,2,.47,4.14.25,5.34-1.6a12,12,0,0,0,1.18-3.09l1.23-4,2.46-7.89c.58-1.85-2.32-2.64-2.89-.8l-3.83,12.31c-.21.66-.36,1.81-1.06,2.17a3.49,3.49,0,0,1-2.35-.24c-1.88-.59-3.72-1.31-5.59-1.91a137.14,137.14,0,0,0-24.53-5.37c-7.21-.9-15.6-1-21.83-5.22-.46-.31-1.53-1.1-1.5-1.78s1.37-1.16,1.94-1.44a36.15,36.15,0,0,1,5.51-2.15,38.54,38.54,0,0,1,11.39-1.67c4.31,0,8.38,1.06,12.59,1.8s8.37.95,12.15-1.16c1.69-.94.18-3.54-1.51-2.59Z"/><path class="cls-1" d="M496.33,380.68H402.77s-36.47,87.69-40.43,120.88S333.79,711.7,333.79,711.7s19.82,5.53,26.17,1.58l64.61-220s12.69-26.07,8.73,22.12c-2.15,26,6.84,46.88,11.89,52.14,17.44,18.17,95.14,90.86,95.14,90.86s17.44-5.53,18.23-15l-68.7-95.12a37.59,37.59,0,0,1-7.1-21.07c-.42-16.26,6.11-52.14,11.58-73.42C502.19,423.26,501.48,400,496.33,380.68Z"/><path d="M543.62,660.44c-.13,4-2.81,7.15-5.37,9.95a61.22,61.22,0,0,0-7.73,9.63,41.05,41.05,0,0,0-4.87,12,42.27,42.27,0,0,0-.93,6.12c-.15,2,.22,4.05,2.3,4.81,3.5,1.28,7.6-2.07,10.06-4.16a57.83,57.83,0,0,0,8.21-9.12,152.9,152.9,0,0,1,18.49-20.41c1.93-1.75,4-3.37,5.94-5,1.59-1.35,3.07-3.23,2.45-5.45a7.44,7.44,0,0,0-1.84-2.76q-1.44-1.65-2.9-3.28l-5.79-6.56c-1.28-1.45-3.4.67-2.12,2.12,3,3.44,6.18,6.83,9.14,10.35.52.62.85,1.13.43,1.89a7.82,7.82,0,0,1-2,1.94c-1.63,1.32-3.24,2.68-4.81,4.07A137.49,137.49,0,0,0,545.12,685c-2.32,3-4.57,6.05-7.17,8.81a32.43,32.43,0,0,1-4.06,3.71,14,14,0,0,1-4.53,2.56c-.53.13-1.3.3-1.6-.26-.38-.71,0-2.15.08-2.92a37,37,0,0,1,1.11-5.7,38.69,38.69,0,0,1,4.7-10.57c2.3-3.61,5.37-6.48,8.13-9.72,2.58-3,4.71-6.41,4.84-10.49.07-1.93-2.93-1.93-3,0Z"/></g></g></svg>