<svg xmlns="http://www.w3.org/2000/svg" viewBox="0 0 300.81 650.74"><defs><style>.cls-1{fill:#c06181;}</style></defs><title>Asset 2</title><g id="Layer_2" data-name="Layer 2"><g id="Layer_2-2" data-name="Layer 2"><path class="cls-1" d="M131.21,121.29l45.52,6.61.73,15.42s13.95,13.21,11.75,51.39-9.55,260.62-25,262.09-92.51-5.88-99.11-25,60.93-164.44,52.12-203.35,2.94-88.83,11.75-90.3Z"/><path class="cls-1" d="M148.1,147s-24.23-11.75-33.78,15.42S74,254.17,98.91,258.58s83,11.74,86.63,10.28,4.4-17.62,0-26.43-50.66-8.81-51.39-11S167.92,174.15,148.1,147Z"/><path class="cls-1" d="M183.33,152.86s19.09,10.28,22,68.28c0,0,2.2,26.43,13.95,44.78s47.72,71.95,43.31,78.55-16.15,16.15-16.15,16.15-68.28-103.51-64.6-110.85S156.17,128.64,183.33,152.86Z"/><path d="M140.14,226.87q-.46-14.52.43-29,.23-3.57.52-7.12c.12-1.41.12-3.73,1.66-4.4a8,8,0,0,1,2.84-.29l4-.16,7.21-.27,14.67-.56a135.17,135.17,0,0,1,13.8-.06,49.93,49.93,0,0,1,7.11.92c1.87.39,3.74.7,4.07,2.87a53.66,53.66,0,0,1,.33,6.71q.09,3.58,0,7.17a144.8,144.8,0,0,1-4.26,31.28c-.47,1.87,2.42,2.67,2.89.8a149.21,149.21,0,0,0,4.31-30.17,126.37,126.37,0,0,0-.2-15.2c-.17-2.1-.76-4-2.67-5.16s-4.18-1.35-6.22-1.65c-10.15-1.53-20.64-.46-30.84-.07-5.17.2-10.37.31-15.54.6-2,.11-3.87.69-4.95,2.52s-1.08,3.9-1.24,5.86a312,312,0,0,0-.89,35.4c.06,1.92,3.06,1.93,3,0Z"/><path d="M167.44,154.56a150.47,150.47,0,0,1,0,26.68c-.16,1.93,2.84,1.92,3,0a150.47,150.47,0,0,0,0-26.68c-.17-1.9-3.17-1.92-3,0Z"/><path d="M172.58,154.32a71.76,71.76,0,0,1,9.15.51c1.49.17,3,.41,4.46.69a11.81,11.81,0,0,1,2,.46c.59.23.58.56.53,1.17-.24,3-.82,6-1.22,8.94l-1.29,9.41a1.55,1.55,0,0,0,1.05,1.84,1.51,1.51,0,0,0,1.85-1l1.47-10.75.73-5.37c.21-1.56.77-3.43.18-5a4.17,4.17,0,0,0-3.13-2.32c-1.69-.41-3.44-.65-5.16-.89a76,76,0,0,0-10.66-.7,1.5,1.5,0,0,0,0,3Z"/><path d="M167.79,158.25c-2,.81-4.18-.2-6.25-.13-2.61.08-4.17,1.77-4.46,4.32-.37,3.25-.48,6.55-.71,9.81l-.74,10.49c-.14,1.93,2.86,1.92,3,0l1.29-18.24c.06-.84-.13-2.51.63-3.12.53-.43,1.47-.27,2.08-.21,2,.2,4,.75,6,0,1.77-.71,1-3.62-.8-2.9Z"/><path d="M196.21,251.6A9.47,9.47,0,0,1,205,254a10.78,10.78,0,0,1,3.25,9.29c-.87,7.75-8,12.61-15.25,13.62a8.72,8.72,0,0,1-1.19.13,8.26,8.26,0,0,1,0-1.17,16,16,0,0,1,.54-3.3,17.86,17.86,0,0,1,3-6.17c1.16-1.54-1.44-3-2.59-1.51a20.09,20.09,0,0,0-3.34,6.88c-.51,1.95-1.33,5.16-.13,7s4.31,1.14,6.2.71a23.31,23.31,0,0,0,6.82-2.68,18.12,18.12,0,0,0,8.42-10.88,14.47,14.47,0,0,0-2.49-12.79,12.72,12.72,0,0,0-12.94-4.39,1.5,1.5,0,0,0,.8,2.89Z"/><path d="M255.82,354.24a117.76,117.76,0,0,0-1.38,25.44,1.52,1.52,0,0,0,1.9,1.45,8,8,0,0,0,5.5-6.43l-2.5.67c3.77,4,.21,10.29-1.4,14.43-.86,2.23-2,5.26-1.19,7.66,1,3,4.16,2.09,6.13.74,4.39-3,7.4-8,10-12.53s4.5-10.14,2-15.32a31.57,31.57,0,0,0-4.36-6.06c-1.51-1.86-3.09-3.94-3.28-6.42-.15-1.91-3.16-1.93-3,0,.33,4.23,3.15,7.24,5.68,10.39a14.24,14.24,0,0,1,2.94,5.2,12,12,0,0,1-1,7.53,47.91,47.91,0,0,1-3.83,6.81,36.71,36.71,0,0,1-4.31,5.75,16,16,0,0,1-2.71,2.28c-.21.14-1.22.9-1.44.73s0-1.11,0-1.37c.26-2.6,1.44-5,2.43-7.42,1.92-4.63,3.28-10.44-.54-14.53a1.51,1.51,0,0,0-2.51.67,5.15,5.15,0,0,1-3.41,4.32l1.9,1.45A114.28,114.28,0,0,1,258.71,355c.31-1.88-2.58-2.7-2.89-.79Z"/><path d="M90.31,451.92c-10.78,16-18.81,33.66-26.08,51.49s-13.9,36.22-22,53.84A240.31,240.31,0,0,1,26.78,586c-1,1.64,1.56,3.14,2.59,1.52,10.38-16.31,18.16-34.08,25.34-52s13.86-36.2,22.22-53.7a222,222,0,0,1,16-28.37c1.08-1.61-1.52-3.11-2.59-1.52Z"/><path d="M116.57,462.86c-3.4,10.83-9.9,20.42-15.75,30-6.23,10.25-12.49,20.48-18.91,30.61-6.06,9.55-12.4,18.9-18.57,28.38C57.6,560.7,52.13,569.75,48,579.47c-4.44,10.55-7,21.91-6,33.39.17,1.91,3.17,1.93,3,0-1.92-21,8.51-40.2,19.47-57.28,6-9.42,12.38-18.65,18.4-28.09,6.41-10,12.64-20.19,18.84-30.37,6.52-10.71,13.92-21.39,17.7-33.46.58-1.85-2.32-2.64-2.89-.8Z"/><path d="M23.56,589.51C20,599.42,27.7,611,38,612a1.52,1.52,0,0,0,1.5-1.5A1.54,1.54,0,0,0,38,609c-8.52-.87-14.4-10.82-11.57-18.73.66-1.82-2.24-2.6-2.89-.8Z"/><path d="M16.68,587.68a26.86,26.86,0,0,0-10.63,5.05c-2.79,2.18-6.85,5.74-5.91,9.71A9.52,9.52,0,0,0,3.32,607c1.81,1.65,3.66,3.25,5.5,4.87L20,621.77c6.41,5.67,12.82,11.43,20,16.08a62.57,62.57,0,0,0,11.11,5.76c3.15,1.23,7.29,2.94,10.68,1.61a4.73,4.73,0,0,0,3-4.64c-.1-2.42-1.69-4.52-3-6.48l-9.1-14.21c-1-1.62-3.63-.11-2.59,1.52l7.1,11.07c1.13,1.77,2.31,3.52,3.39,5.32.69,1.14,1.9,3.22.56,4.33-1,.84-2.76.58-3.92.32a34,34,0,0,1-5-1.59,57.49,57.49,0,0,1-9.89-5,137.62,137.62,0,0,1-17.55-13.75C18.45,616.4,12,610.75,5.58,605c-1.28-1.14-3.13-2.75-2.41-4.66.66-1.75,2.41-3.28,3.78-4.49a23.82,23.82,0,0,1,10.52-5.27c1.89-.43,1.09-3.32-.79-2.9Z"/><path d="M180.93,453c1,12.35,2,24.72,3.86,37a225.05,225.05,0,0,0,8.06,34c6.87,21.62,16.28,42.31,24.84,63.29,4.83,11.85,9.4,23.82,13.09,36.08.56,1.84,3.46,1.05,2.9-.8-6.54-21.68-15.79-42.39-24.42-63.28s-16.71-42.32-20.7-64.73c-2.44-13.71-3.53-27.62-4.63-41.49-.15-1.91-3.15-1.92-3,0Z"/><path d="M205.85,444.6l16.13,67,16.13,67,9.12,37.87c.45,1.88,3.34,1.08,2.89-.79l-16.13-67-16.13-67-9.12-37.87c-.45-1.88-3.34-1.08-2.89.79Z"/><path d="M234.65,626.23a18.24,18.24,0,0,0,22.84-3.79c1.23-1.48-.88-3.61-2.12-2.12a15.26,15.26,0,0,1-19.2,3.32,1.5,1.5,0,0,0-1.52,2.59Z"/><path d="M228.44,627a26.37,26.37,0,0,0-4.94,11.63c-.55,3.48-1.1,8.45,2.45,10.55a10.5,10.5,0,0,0,5.06,1.11c2.44.07,4.88.09,7.33.13l14.68.26c8.85.15,17.73.36,26.51-.89A58.26,58.26,0,0,0,292,646.66c3.15-1.19,7.74-2.8,8.64-6.52,1.18-4.84-4.51-6.4-7.95-7.44l-15.91-4.83c-1.85-.56-2.64,2.34-.8,2.9l12.35,3.74c2,.61,4,1.19,6,1.83,1.14.36,2.91.91,3.34,2.17,1,2.91-5.31,4.84-7.1,5.49a58,58,0,0,1-10.78,2.69c-7.6,1.19-15.34,1.13-23,1-8.54-.14-17.08-.23-25.62-.45-1.5,0-3.65,0-4.54-1.48s-.54-4-.35-5.72A24.16,24.16,0,0,1,231,628.47c1.15-1.55-1.45-3.05-2.59-1.52Z"/><path d="M161.87,1.71c-13.19-5.37-27.36,2.89-37.44,11a93,93,0,0,0-25,31C93.18,56.3,89.35,71.4,93.73,85.27c3.79,12,13.45,21.15,24.47,26.72,15.06,7.63,32.31,8.67,48.86,9.65a1.51,1.51,0,0,0,1.44-1.9A68.32,68.32,0,0,1,165.34,89c1.25-9.81,5.43-19,6.26-28.9a24.63,24.63,0,0,0-3-14.79A1.5,1.5,0,0,0,166,46.78c4.93,8.3,2.06,18.33-.31,27a110.39,110.39,0,0,0-3.26,14.33,70.65,70.65,0,0,0,3.16,32.45l1.45-1.9c-14.46-.85-29.32-1.72-42.91-7.21-10.73-4.34-20.73-12-25.81-22.58-6-12.5-3.5-27.27,1.79-39.53a90.26,90.26,0,0,1,22.11-30.83A71,71,0,0,1,140.15,6.17c6.57-3,14-4.36,20.92-1.56,1.79.72,2.57-2.18.8-2.9Z"/><path d="M189.29,49.67c1.3,1.76,1.09,4.57,1.14,6.65.07,2.57,0,5.14-.09,7.7a93.48,93.48,0,0,0,.19,15.06,63.94,63.94,0,0,0,1.47,7,6.08,6.08,0,0,1,.22,2.68c-.23,1-1.1,1.25-1.92,1.67a5.06,5.06,0,0,0-2.87,4.42c-.14,1.87.5,3.75.24,5.61-.31,2.26-2.82,3.34-4.65,4.19a34.93,34.93,0,0,1-8.1,2.59c-1.89.38-1.09,3.27.8,2.9a38.78,38.78,0,0,0,7.59-2.35c2.05-.88,4.33-1.88,5.81-3.61a7.47,7.47,0,0,0,1.53-5.78c-.14-1.64-.91-4.19.83-5.21a9.19,9.19,0,0,0,2.62-1.69,4.91,4.91,0,0,0,1.16-3c.16-2.25-.77-4.45-1.24-6.62-1.17-5.38-.94-11-.74-16.43.12-3.11.24-6.22.15-9.33-.08-2.55,0-5.78-1.54-7.94-1.14-1.54-3.74,0-2.6,1.52Z"/><path d="M164.2,4.9c6.4-3.36,14-2,20,1.6,6.84,4.08,11.15,10.77,13.58,18.22,2.74,8.38,3.31,17.26,3.85,26q.91,15.09,1.22,30.2.33,17.09-.14,34.18c-.06,1.94,2.94,1.93,3,0q.87-31.93-1-63.88c-1-16.7-2.54-36.72-18-46.74-7.07-4.57-16.21-6.2-23.89-2.16-1.71.9-.2,3.49,1.51,2.59Z"/><path d="M199.75,289.74a58.65,58.65,0,0,0,0,14.86,59.3,59.3,0,0,0,1.4,7.24c.56,2.15,1.33,4.24,1.9,6.39a12.37,12.37,0,0,1,.53,5.72c-.47,2.14-2.1,3.22-4,4-4.81,1.91-9.7,3.61-14.54,5.41-1.8.67-1,3.57.79,2.9l12.4-4.62c3.38-1.25,6.85-2.48,8.08-6.21,1-3.12.1-6.62-.83-9.64a68,68,0,0,1-2.79-11.87,57.84,57.84,0,0,1,.06-14.16c.24-1.91-2.76-1.89-3,0Z"/><path d="M201.81,334.64l5.47,54.47L210,416.34l.67,6.69a22.76,22.76,0,0,1,.2,5.77c-.64,4-5.07,4.94-8.41,5.87a56.46,56.46,0,0,1-28,.58c-1.88-.44-2.68,2.45-.8,2.89a59.84,59.84,0,0,0,26,.29,56.61,56.61,0,0,0,6.13-1.66,16.56,16.56,0,0,0,5.08-2.39c3.24-2.53,3.2-6.64,2.83-10.36q-2.85-28.61-5.74-57.19l-3.23-32.19c-.19-1.9-3.19-1.92-3,0Z"/></g></g></svg>